<svg width="3080" height="483" viewBox="0 0 3080 483" fill="none" xmlns="http://www.w3.org/2000/svg">
<path d="M319.245 264.821L284.317 337.157L378.354 320.717L319.245 264.821Z" fill="#7F7BFF" stroke="#7F7BFF"/>
<path d="M329.527 139.439L298.784 178.224L353.438 206.149L329.527 139.439Z" fill="#5856FF" stroke="#5856FF"/>
<path d="M329.326 149.887L416.129 177.727L398.323 242.317L344.906 195.545L329.326 149.887Z" fill="#7F7BFF" stroke="#7F7BFF"/>
<path d="M250.362 247.139L236.092 165.158L310.036 178.103L250.362 247.139Z" fill="#7F7BFF" stroke="#7F7BFF"/>
<path d="M226.713 299.56L144.839 180.975L259.032 231.187L226.713 299.56Z" fill="#4642F4" stroke="#4642F4"/>
<path d="M230.466 298.373L122.766 284.111L172.033 395.83L230.466 298.373Z" fill="#5856FF" stroke="#5856FF"/>
<path d="M71.2726 352.265L122.879 286.384L168.995 389.597L109.703 413.753L71.2726 352.265Z" fill="#7F7BFF" stroke="#7F7BFF"/>
<path d="M170.093 62.3904L89.9387 112.899L170.093 106.311L253.542 56.9004L170.093 62.3904Z" fill="#4642F4" stroke="#4642F4"/>
<path d="M55.9005 38.2343V2L86.6447 30.5482L55.9005 38.2343Z" fill="#4D49EF" stroke="#4D49EF"/>
<path d="M51.5084 85.4486L8.68604 72.2725L51.5084 49.2144V85.4486Z" fill="#4642F4" stroke="#4642F4"/>
<path d="M19.6661 107.409L1 135.957L42.7243 152.427L64.6845 103.017L19.6661 107.409Z" fill="#7F7BFF" stroke="#7F7BFF"/>
<path d="M1 196.347L20.7642 173.289L54.8024 175.485L1 196.347Z" fill="#4642F4" stroke="#4642F4"/>
<path d="M106.409 269.914L9.78406 221.602L121.781 195.25L106.409 269.914Z" fill="#4642F4" stroke="#4642F4"/>
<path d="M55.9004 318.226L25.1562 274.306L97.6248 285.286L55.9004 318.226Z" fill="#5856FF" stroke="#5856FF"/>
<path d="M93.2327 127.173L64.6845 186.466L126.173 161.211L149.231 122.781L93.2327 127.173Z" fill="#5856FF" stroke="#5856FF"/>
<path d="M137.153 57.9984L77.8606 48.1163L81.1546 92.0367L137.153 57.9984Z" fill="#5E5CFF" stroke="#5E5CFF"/>
<path d="M133.859 36.0382L103.115 8.58801L152.525 19.5681L133.859 36.0382Z" fill="#7F7BFF" stroke="#7F7BFF"/>
<path d="M198.642 48.1164L152.525 50.3124L173.387 26.1562L198.642 48.1164Z" fill="#4642F4" stroke="#4642F4"/>
<path d="M329.326 396.082L164.56 389.4L227.931 481.83L298.216 475.148L329.326 396.082Z" fill="#7F7BFF" stroke="#7F7BFF"/>
<path d="M168.995 389.597L109.703 413.753L222.798 481.83H230.484L168.995 389.597Z" fill="#4D49EF" stroke="#4D49EF"/>
<path d="M142.62 175.607L122.766 285.879L226.448 299.382L142.62 175.607Z" fill="#4D49EF" stroke="#4D49EF"/>
<path d="M181.073 112.899L143.741 175.485L246.954 167.799L181.073 112.899Z" fill="#5856FF" stroke="#5856FF"/>
<path d="M329.305 150.231L181.073 111.801L248.052 167.799L309.54 177.681L329.305 150.231Z" fill="#4642F4" stroke="#4642F4"/>
<path d="M279.894 56.9004L182.171 111.801L329.305 150.231L279.894 56.9004Z" fill="#7F7BFF" stroke="#7F7BFF"/>
<path d="M395.479 106.017L281.286 57.7042L330.697 151.035L416.342 178.485L395.479 106.017Z" fill="#5856FF" stroke="#5856FF"/>
<path d="M259.921 228.899L226.448 299.382L321.288 264.141L312.362 173.196L259.921 228.899Z" fill="#5856FF" stroke="#5856FF"/>
<path d="M319.3 263.706L310.344 177.387L346.169 197.307L367.441 317.932L319.3 263.706Z" fill="#4642F4" stroke="#4642F4"/>
<path d="M356.653 250.867L367.369 319.475H394.16L398.447 243.12L356.653 250.867Z" fill="#7F7BFF" stroke="#7F7BFF"/>
<path d="M318.073 264.821L289.479 334.746L228.055 298.17L318.073 264.821Z" fill="#4D49EF" stroke="#4D49EF"/>
<path d="M227.779 298.757L172.799 386.597L291.384 335.178L227.779 298.757Z" fill="#7F7BFF" stroke="#7F7BFF"/>
<path d="M259.401 232.672L246.23 168.373L142.859 176.204L144.855 180.738L259.401 232.672Z" fill="#4D49EF" stroke="#4D49EF"/>
<path d="M291.04 335.55L169.382 388.597L330.129 395.83L291.04 335.55Z" fill="#4D49EF" stroke="#4D49EF"/>
<path d="M356.653 251.158L346.606 196.906L398.849 243.121L356.653 251.158Z" fill="#5856FF" stroke="#5856FF"/>
<path d="M328.868 395.83L291.55 335.837L367.283 319.475H393.625L328.868 395.83Z" fill="#5856FF" stroke="#5856FF"/>
<path d="M818.814 245.882H768.345C766.906 237.606 764.252 230.274 760.384 223.886C756.515 217.409 751.702 211.921 745.945 207.423C740.187 202.925 733.62 199.552 726.243 197.303C718.956 194.964 711.084 193.794 702.628 193.794C687.604 193.794 674.29 197.572 662.685 205.129C651.08 212.596 641.993 223.571 635.426 238.055C628.859 252.449 625.575 270.037 625.575 290.818C625.575 311.959 628.859 329.772 635.426 344.256C642.083 358.65 651.17 369.535 662.685 376.912C674.29 384.199 687.559 387.842 702.493 387.842C710.769 387.842 718.506 386.763 725.703 384.604C732.99 382.355 739.512 379.071 745.27 374.753C751.117 370.435 756.02 365.127 759.979 358.83C764.027 352.532 766.816 345.335 768.345 337.239L818.814 337.509C816.925 350.643 812.831 362.968 806.534 374.483C800.327 385.998 792.185 396.164 782.109 404.98C772.034 413.706 760.249 420.544 746.754 425.491C733.26 430.349 718.281 432.778 701.818 432.778C677.528 432.778 655.848 427.156 636.776 415.911C617.704 404.665 602.68 388.427 591.705 367.196C580.729 345.965 575.241 320.506 575.241 290.818C575.241 261.041 580.774 235.581 591.839 214.44C602.905 193.209 617.973 176.971 637.045 165.726C656.117 154.481 677.708 148.858 701.818 148.858C717.202 148.858 731.506 151.017 744.73 155.335C757.955 159.653 769.74 165.996 780.085 174.362C790.431 182.639 798.932 192.804 805.59 204.859C812.337 216.824 816.745 230.499 818.814 245.882ZM1111.61 290.818C1111.61 320.596 1106.03 346.1 1094.87 367.331C1083.81 388.472 1068.69 404.665 1049.53 415.911C1030.46 427.156 1008.83 432.778 984.625 432.778C960.426 432.778 938.745 427.156 919.583 415.911C900.511 404.575 885.397 388.337 874.242 367.196C863.176 345.965 857.644 320.506 857.644 290.818C857.644 261.041 863.176 235.581 874.242 214.44C885.397 193.209 900.511 176.971 919.583 165.726C938.745 154.481 960.426 148.858 984.625 148.858C1008.83 148.858 1030.46 154.481 1049.53 165.726C1068.69 176.971 1083.81 193.209 1094.87 214.44C1106.03 235.581 1111.61 261.041 1111.61 290.818ZM1061.27 290.818C1061.27 269.857 1057.99 252.179 1051.42 237.785C1044.94 223.302 1035.95 212.371 1024.43 204.994C1012.92 197.527 999.649 193.794 984.625 193.794C969.602 193.794 956.332 197.527 944.817 204.994C933.302 212.371 924.261 223.302 917.694 237.785C911.216 252.179 907.978 269.857 907.978 290.818C907.978 311.779 911.216 329.502 917.694 343.986C924.261 358.38 933.302 369.31 944.817 376.777C956.332 384.154 969.602 387.842 984.625 387.842C999.649 387.842 1012.92 384.154 1024.43 376.777C1035.95 369.31 1044.94 358.38 1051.42 343.986C1057.99 329.502 1061.27 311.779 1061.27 290.818ZM1158.94 429V152.636H1262.57C1283.81 152.636 1301.62 156.325 1316.01 163.702C1330.5 171.079 1341.43 181.424 1348.8 194.739C1356.27 207.963 1360 223.392 1360 241.024C1360 258.747 1356.23 274.13 1348.67 287.175C1341.2 300.129 1330.18 310.16 1315.61 317.267C1301.03 324.284 1283.13 327.793 1261.9 327.793H1188.09V286.23H1255.15C1267.57 286.23 1277.73 284.521 1285.65 281.102C1293.57 277.594 1299.41 272.511 1303.19 265.854C1307.06 259.107 1309 250.83 1309 241.024C1309 231.218 1307.06 222.852 1303.19 215.925C1299.32 208.908 1293.43 203.6 1285.51 200.001C1277.6 196.313 1267.39 194.469 1254.88 194.469H1209V429H1158.94ZM1301.71 303.773L1370.12 429H1314.26L1247.06 303.773H1301.71ZM1456.15 152.636V429H1406.09V152.636H1456.15ZM1604.62 429V152.636H1654.69V269.632H1782.75V152.636H1832.95V429H1782.75V311.599H1654.69V429H1604.62ZM1887.4 429V152.636H2067.14V194.604H1937.46V269.632H2057.83V311.599H1937.46V387.033H2068.22V429H1887.4ZM2153.71 429H2100.27L2197.56 152.636H2259.37L2356.8 429H2303.36L2229.54 209.312H2227.38L2153.71 429ZM2155.46 320.641H2301.2V360.854H2155.46V320.641ZM2393.2 429V152.636H2443.26V387.033H2564.98V429H2393.2ZM2561.03 194.604V152.636H2781.53V194.604H2696.11V429H2646.45V194.604H2561.03ZM2824.04 429V152.636H2874.1V269.632H3002.16V152.636H3052.36V429H3002.16V311.599H2874.1V429H2824.04Z" fill="#4D49EF"/>
</svg>
