<svg width="10778" height="2149" viewBox="0 0 10778 2149" fill="none" xmlns="http://www.w3.org/2000/svg">
<path d="M1333 482.531C1128 524.531 987.497 757.531 987.497 757.531C987.497 757.531 926.997 655.531 973.497 482.531C1020 309.531 1333 118.531 1333 118.531C1524.5 11.531 1645.5 4.03102 1767 1.53102C1888.49 -0.968984 2061 48.531 2131 118.531C2201 188.531 2238 309.531 2238 309.531C2238 309.531 2234 454.531 2131 482.531C2028 510.531 1538 440.531 1333 482.531Z" fill="#FF006C"/>
<path d="M1325 657.03C945.999 885.53 1038.5 1055.53 1038.5 1055.53H1116C1116 1055.53 1116 953.531 1233 885.53H2238.5C2238.5 885.53 2301.5 900.03 2355 778.53C2408.5 657.03 2355 623.03 2355 623.03C1946.05 581.719 1720.32 587.474 1325 657.03Z" fill="#FF006C"/>
<path d="M2267.5 1041.03H1131L1028.5 1055.53C902.218 1108.11 832.455 1145.97 713 1254.53C602.66 1370.7 587.948 1433.62 557.5 1546.03L742 1740.53C772.818 1700.07 853.194 1540.57 922 1463.53C990.806 1386.49 1196.07 1283.26 1194 1293.53H2068.5C2068.5 1293.53 2194.5 1240.03 2228.5 1177.03C2262.5 1114.03 2267.5 1041.03 2267.5 1041.03Z" fill="#FF006C"/>
<path d="M897.303 1883.75L1174.26 2148.53L1310.24 2004.06L1348.73 1839.02L1489.71 1763.95L1582.19 1659.07L1766.66 1673.98C1917.15 1585.48 1948.05 1534.01 1927.14 1439.53H1227.75C1108.16 1503.58 1054.81 1549.45 970.291 1639.02C900.346 1729.65 883.833 1783.17 897.303 1883.75Z" fill="#FF006C"/>
<circle cx="793" cy="917.531" r="114" fill="#FF006C"/>
<path d="M594.5 1198.03L434.5 1358.03C201.726 1142.24 109.612 1045.37 49.0001 937.531C-6.41271 734.173 -25.2436 583.22 49.0001 362.031C240.623 106.924 363.878 48.3614 594.5 1.53093C821.109 -8.36191 918.687 28.6864 1060 142.031L840 362.031C687.023 290.688 545.459 289.818 364.5 467.031C250.992 650.771 257.312 753.797 364.5 937.531L594.5 1198.03Z" fill="#FF006C"/>
<path d="M3586.35 1078.02H3353.04C3348.78 1047.83 3340.08 1021.02 3326.94 997.582C3313.8 973.79 3296.93 953.548 3276.34 936.858C3255.74 920.168 3231.95 907.383 3204.96 898.506C3178.33 889.628 3149.38 885.189 3118.13 885.189C3061.67 885.189 3012.49 899.216 2970.58 927.27C2928.68 954.969 2896.19 995.452 2873.11 1048.72C2850.02 1101.63 2838.48 1165.91 2838.48 1241.55C2838.48 1319.32 2850.02 1384.66 2873.11 1437.57C2896.54 1490.48 2929.21 1530.43 2971.12 1557.42C3013.02 1584.41 3061.49 1597.9 3116.54 1597.9C3147.43 1597.9 3176.02 1593.82 3202.3 1585.65C3228.93 1577.48 3252.54 1565.59 3273.14 1549.96C3293.74 1533.98 3310.78 1514.63 3324.28 1491.9C3338.13 1469.17 3347.71 1443.25 3353.04 1414.13L3586.35 1415.2C3580.31 1465.27 3565.22 1513.56 3541.07 1560.08C3517.28 1606.25 3485.14 1647.62 3444.66 1684.19C3404.53 1720.42 3356.59 1749.18 3300.84 1770.49C3245.44 1791.44 3182.76 1801.91 3112.81 1801.91C3015.51 1801.91 2928.5 1779.9 2851.8 1735.86C2775.45 1691.83 2715.08 1628.09 2670.69 1544.63C2626.66 1461.18 2604.64 1360.15 2604.64 1241.55C2604.64 1122.58 2627.01 1021.38 2671.76 937.923C2716.5 854.472 2777.22 790.906 2853.93 747.227C2930.63 703.193 3016.93 681.176 3112.81 681.176C3176.02 681.176 3234.61 690.054 3288.59 707.81C3342.92 725.565 3391.04 751.489 3432.94 785.579C3474.85 819.315 3508.94 860.686 3535.21 909.692C3561.85 958.697 3578.89 1014.81 3586.35 1078.02ZM4117.16 1802.98C4034.42 1802.98 3962.86 1785.4 3902.49 1750.25C3842.48 1714.73 3796.13 1665.37 3763.46 1602.16C3730.79 1538.6 3714.46 1464.91 3714.46 1381.11C3714.46 1296.59 3730.79 1222.72 3763.46 1159.51C3796.13 1095.95 3842.48 1046.59 3902.49 1011.43C3962.86 975.92 4034.42 958.165 4117.16 958.165C4199.9 958.165 4271.28 975.92 4331.29 1011.43C4391.66 1046.59 4438.18 1095.95 4470.85 1159.51C4503.52 1222.72 4519.86 1296.59 4519.86 1381.11C4519.86 1464.91 4503.52 1538.6 4470.85 1602.16C4438.18 1665.37 4391.66 1714.73 4331.29 1750.25C4271.28 1785.4 4199.9 1802.98 4117.16 1802.98ZM4118.22 1627.2C4155.86 1627.2 4187.29 1616.55 4212.5 1595.24C4237.72 1573.58 4256.72 1544.1 4269.5 1506.82C4282.64 1469.53 4289.21 1427.09 4289.21 1379.51C4289.21 1331.92 4282.64 1289.49 4269.5 1252.2C4256.72 1214.91 4237.72 1185.44 4212.5 1163.78C4187.29 1142.11 4155.86 1131.28 4118.22 1131.28C4080.23 1131.28 4048.26 1142.11 4022.34 1163.78C3996.77 1185.44 3977.42 1214.91 3964.28 1252.2C3951.5 1289.49 3945.1 1331.92 3945.1 1379.51C3945.1 1427.09 3951.5 1469.53 3964.28 1506.82C3977.42 1544.1 3996.77 1573.58 4022.34 1595.24C4048.26 1616.55 4080.23 1627.2 4118.22 1627.2ZM4667.41 1787V968.818H4887.4V1111.57H4895.92C4910.84 1060.79 4935.87 1022.44 4971.03 996.517C5006.18 970.239 5046.67 957.099 5092.48 957.099C5103.84 957.099 5116.09 957.81 5129.23 959.23C5142.37 960.651 5153.91 962.604 5163.85 965.089V1166.44C5153.2 1163.24 5138.46 1160.4 5119.64 1157.92C5100.82 1155.43 5083.6 1154.19 5067.97 1154.19C5034.59 1154.19 5004.76 1161.47 4978.49 1176.03C4952.56 1190.23 4931.97 1210.12 4916.7 1235.69C4901.78 1261.25 4894.32 1290.73 4894.32 1324.11V1787H4667.41ZM5281.18 1787V968.818H5508.09V1787H5281.18ZM5395.17 863.349C5361.43 863.349 5332.49 852.163 5308.34 829.791C5284.55 807.064 5272.65 779.898 5272.65 748.293C5272.65 717.043 5284.55 690.232 5308.34 667.859C5332.49 645.132 5361.43 633.768 5395.17 633.768C5428.9 633.768 5457.67 645.132 5481.46 667.859C5505.61 690.232 5517.68 717.043 5517.68 748.293C5517.68 779.898 5505.61 807.064 5481.46 829.791C5457.67 852.163 5428.9 863.349 5395.17 863.349ZM6041.3 1787V696.091H6271.94V1146.2H6740.16V696.091H6970.27V1787H6740.16V1336.36H6271.94V1787H6041.3ZM7529.04 1802.98C7444.88 1802.98 7372.44 1785.93 7311.71 1751.84C7251.35 1717.4 7204.83 1668.75 7172.16 1605.89C7139.48 1542.68 7123.15 1467.93 7123.15 1381.64C7123.15 1297.48 7139.48 1223.61 7172.16 1160.05C7204.83 1096.48 7250.81 1046.94 7310.12 1011.43C7369.78 975.92 7439.73 958.165 7519.99 958.165C7573.97 958.165 7624.21 966.865 7670.73 984.266C7717.61 1001.31 7758.45 1027.06 7793.25 1061.5C7828.41 1095.95 7855.75 1139.27 7875.28 1191.47C7894.81 1243.32 7904.58 1304.05 7904.58 1373.65V1435.97H7213.7V1295.35H7690.98C7690.98 1262.67 7683.87 1233.73 7669.67 1208.52C7655.46 1183.31 7635.76 1163.6 7610.54 1149.39C7585.69 1134.83 7556.74 1127.55 7523.72 1127.55C7489.27 1127.55 7458.73 1135.54 7432.1 1151.52C7405.82 1167.15 7385.22 1188.28 7370.31 1214.91C7355.39 1241.19 7347.76 1270.49 7347.4 1302.8V1436.5C7347.4 1476.99 7354.86 1511.96 7369.78 1541.44C7385.05 1570.91 7406.53 1593.64 7434.23 1609.62C7461.93 1625.6 7494.78 1633.59 7532.77 1633.59C7557.99 1633.59 7581.07 1630.04 7602.02 1622.94C7622.97 1615.84 7640.91 1605.18 7655.82 1590.98C7670.73 1576.77 7682.1 1559.37 7689.91 1538.78L7899.78 1552.62C7889.13 1603.05 7867.29 1647.09 7834.26 1684.73C7801.59 1722.01 7759.34 1751.13 7707.49 1772.09C7656 1792.68 7596.52 1802.98 7529.04 1802.98ZM8285.97 1802.45C8233.77 1802.45 8187.25 1793.39 8146.41 1775.28C8105.57 1756.82 8073.26 1729.65 8049.46 1693.78C8026.03 1657.56 8014.31 1612.46 8014.31 1558.48C8014.31 1513.03 8022.65 1474.86 8039.34 1443.96C8056.03 1413.07 8078.76 1388.21 8107.52 1369.39C8136.29 1350.57 8168.96 1336.36 8205.54 1326.77C8242.47 1317.18 8281.18 1310.44 8321.66 1306.53C8369.24 1301.56 8407.6 1296.94 8436.71 1292.68C8465.83 1288.07 8486.96 1281.32 8500.1 1272.44C8513.24 1263.56 8519.81 1250.42 8519.81 1233.02V1229.83C8519.81 1196.09 8509.16 1169.99 8487.85 1151.52C8466.9 1133.06 8437.07 1123.83 8398.36 1123.83C8357.52 1123.83 8325.03 1132.88 8300.88 1150.99C8276.74 1168.75 8260.76 1191.12 8252.94 1218.11L8043.07 1201.06C8053.72 1151.35 8074.68 1108.38 8105.93 1072.16C8137.18 1035.58 8177.48 1007.53 8226.84 987.994C8276.56 968.108 8334.09 958.165 8399.43 958.165C8444.88 958.165 8488.38 963.491 8529.93 974.145C8571.84 984.798 8608.94 1001.31 8641.26 1023.68C8673.93 1046.06 8699.68 1074.82 8718.5 1109.98C8737.32 1144.78 8746.73 1186.5 8746.73 1235.15V1787H8531.53V1673.54H8525.14C8512 1699.11 8494.42 1721.66 8472.4 1741.19C8450.39 1760.37 8423.93 1775.46 8393.04 1786.47C8362.14 1797.12 8326.45 1802.45 8285.97 1802.45ZM8350.95 1645.84C8384.34 1645.84 8413.81 1639.27 8439.38 1626.13C8464.95 1612.64 8485.01 1594.53 8499.57 1571.8C8514.13 1549.07 8521.41 1523.33 8521.41 1494.56V1407.74C8514.31 1412.36 8504.54 1416.62 8492.11 1420.52C8480.04 1424.07 8466.37 1427.45 8451.1 1430.64C8435.83 1433.48 8420.56 1436.15 8405.29 1438.63C8390.02 1440.76 8376.17 1442.72 8363.74 1444.49C8337.11 1448.4 8313.85 1454.61 8293.96 1463.14C8274.07 1471.66 8258.63 1483.2 8247.62 1497.76C8236.61 1511.96 8231.1 1529.72 8231.1 1551.03C8231.1 1581.92 8242.29 1605.54 8264.66 1621.87C8287.39 1637.85 8316.15 1645.84 8350.95 1645.84ZM9149.69 696.091V1787H8922.78V696.091H9149.69ZM9766.66 968.818V1139.27H9273.94V968.818H9766.66ZM9385.8 772.795H9612.72V1535.58C9612.72 1556.53 9615.91 1572.87 9622.31 1584.59C9628.7 1595.95 9637.58 1603.94 9648.94 1608.56C9660.66 1613.17 9674.15 1615.48 9689.42 1615.48C9700.08 1615.48 9710.73 1614.59 9721.38 1612.82C9732.04 1610.69 9740.2 1609.09 9745.89 1608.02L9781.57 1776.88C9770.21 1780.43 9754.23 1784.51 9733.63 1789.13C9713.04 1794.1 9688 1797.12 9658.53 1798.19C9603.84 1800.32 9555.9 1793.04 9514.71 1776.35C9473.87 1759.66 9442.09 1733.73 9419.36 1698.58C9396.63 1663.42 9385.45 1619.03 9385.8 1565.41V772.795ZM10159 1313.99V1787H9932.05V696.091H10152.6V1113.17H10162.2C10180.6 1064.88 10210.5 1027.06 10251.7 999.713C10292.8 972.014 10344.5 958.165 10406.7 958.165C10463.5 958.165 10513 970.594 10555.3 995.452C10597.9 1019.95 10630.9 1055.29 10654.4 1101.45C10678.1 1147.26 10689.9 1202.13 10689.5 1266.05V1787H10462.6V1306.53C10462.9 1256.11 10450.2 1216.87 10424.2 1188.81C10398.7 1160.76 10362.8 1146.73 10316.6 1146.73C10285.7 1146.73 10258.4 1153.3 10234.6 1166.44C10211.2 1179.58 10192.7 1198.75 10179.2 1223.97C10166.1 1248.83 10159.3 1278.83 10159 1313.99Z" fill="#7E7BFF"/>
</svg>
